<?xml version="1.0" encoding="utf-8"?>
<!-- Generator: Adobe Illustrator 25.2.0, SVG Export Plug-In . SVG Version: 6.00 Build 0)  -->
<svg version="1.1" id="Слой_1" xmlns="http://www.w3.org/2000/svg" xmlns:xlink="http://www.w3.org/1999/xlink" x="0px" y="0px"
	 viewBox="0 0 198.4 143.1" style="enable-background:new 0 0 198.4 143.1;" xml:space="preserve">
<style type="text/css">
	.st0{fill:#020203;}
</style>
<g>
	<g>
		<polygon class="st0" points="47.1,4.1 77.1,56 81.5,49.4 59.9,11.6 83.1,11.6 111.3,59.8 99.3,79.9 87.7,59.6 94.3,48.1 
			89.7,41.3 78.9,59.5 99.3,95 119.7,59.6 87.7,4.1 		"/>
		<polygon class="st0" points="111,4.1 100.9,21.4 105.5,28.6 115.4,11.4 138.8,11.4 117.2,49 121.7,56.3 151.3,4.1 		"/>
	</g>
	<g>
		<path class="st0" d="M4.2,117.4h5.5l5.9,15.8l5.9-15.8h5.3l-9.1,22.7h-4.4L4.2,117.4z"/>
		<path class="st0" d="M27.8,128.6c0-6.4,5-11.6,12-11.6c6.9,0,11.9,5.2,11.9,11.6c0,6.4-5,11.6-12,11.6
			C32.8,140.3,27.8,135.1,27.8,128.6z M46.6,128.6c0-3.9-2.8-7.1-6.8-7.1s-6.8,3.2-6.8,7.1c0,3.9,2.8,7.1,6.8,7.1
			S46.6,132.6,46.6,128.6z"/>
		<path class="st0" d="M60.5,131l-8.6-13.6h5.8l5.4,9l5.5-9h5.6l-8.6,13.5v9h-5V131z"/>
		<path class="st0" d="M77.2,117.4h17v4.4H82.1v4.6h10.6v4.4H82.1v4.7h12.2v4.4H77.2V117.4z"/>
		<path class="st0" d="M96.8,117.4h5.5l5.9,15.8l5.9-15.8h5.3l-9.1,22.7h-4.4L96.8,117.4z"/>
		<path class="st0" d="M120.4,128.6c0-6.4,5-11.6,12-11.6c6.9,0,11.9,5.2,11.9,11.6c0,6.4-5,11.6-12,11.6
			C125.4,140.3,120.4,135.1,120.4,128.6z M139.2,128.6c0-3.9-2.8-7.1-6.8-7.1s-6.8,3.2-6.8,7.1c0,3.9,2.8,7.1,6.8,7.1
			S139.2,132.6,139.2,128.6z"/>
		<path class="st0" d="M148.7,117.4h8.8c7.1,0,12,4.9,12,11.3c0,6.3-4.9,11.3-12,11.3h-8.8V117.4z M157.5,135.4
			c4.1,0,6.8-2.7,6.8-6.8c0-4-2.7-6.8-6.8-6.8h-3.8v13.6H157.5z"/>
		<path class="st0" d="M180,117.2h4.6l9.6,22.7H189l-2.1-5h-9.5l-2.1,5h-5L180,117.2z M185.2,130.5l-3-7.3l-3,7.3H185.2z"/>
	</g>
</g>
</svg>
