<svg id="Capa_1" data-name="Capa 1" xmlns="http://www.w3.org/2000/svg" viewBox="0 0 451.85 861.61"><path d="M257,276.81a31.56,31.56,0,0,1-22.37-9.26L40.37,73.26A31.64,31.64,0,0,1,85.12,28.51L257,200.43,428.93,28.52a31.64,31.64,0,0,1,44.74,44.75L279.39,267.56A31.55,31.55,0,0,1,257,276.81Z" transform="translate(-31.1 -19.25)"/><path d="M257,475.65a31.56,31.56,0,0,1-22.37-9.26L40.37,272.1a31.64,31.64,0,0,1,44.75-44.75L257,399.27,428.93,227.36a31.64,31.64,0,0,1,44.74,44.75L279.39,466.39A31.52,31.52,0,0,1,257,475.65Z" transform="translate(-31.1 -19.25)"/><path d="M257,682a31.56,31.56,0,0,1-22.37-9.26L40.37,478.47a31.64,31.64,0,0,1,44.75-44.75L257,605.64,428.93,433.73a31.64,31.64,0,0,1,44.74,44.75L279.39,672.76A31.52,31.52,0,0,1,257,682Z" transform="translate(-31.1 -19.25)"/><path d="M257,880.86a31.56,31.56,0,0,1-22.37-9.26L40.37,677.31a31.64,31.64,0,0,1,44.75-44.75L257,804.47,428.93,632.56a31.64,31.64,0,0,1,44.74,44.76L279.39,871.6A31.56,31.56,0,0,1,257,880.86Z" transform="translate(-31.1 -19.25)"/></svg>